<svg id="E-COMMERCE" xmlns="http://www.w3.org/2000/svg" xmlns:xlink="http://www.w3.org/1999/xlink" viewBox="0 0 180 160"><linearGradient id="E-COMMERCE_1_" gradientUnits="userSpaceOnUse" x1="130.743" y1="103.82" x2="165.859" y2="74.354"><stop offset="0" stop-color="#FFF"></stop><stop offset="1" stop-color="#E0E0E0"></stop></linearGradient><path opacity=".5" fill="url(#E-COMMERCE_1_)" d="M140.9 110.3c-1.5-1.1-11.7-8.7-12.7-9.6-1-.9-.2-2 .7-3 1-1 26.7-29.7 27.5-30.6.8-.9 1.6-1.1 2.9-.2.1.1.4.3.7.5l-19 43-.1-.1z"></path><path fill="none" stroke="#BABABA" stroke-width=".63" stroke-linecap="round" stroke-linejoin="round" stroke-miterlimit="10" d="M156 67c-1.2 1.4-26.6 29.6-27.8 30.9-1.2 1.3-1.5 2.4-.2 3.5s11.6 8.9 13 10c1.5 1.1 2.9 1.4 4.4-.4 1.5-1.7 27-30.9 27.9-32 .9-1.1 1.1-3.1-1-4.4-2.2-1.3-10.9-7-12.7-8-1.7-1-2.3-1.1-3.6.4z"></path><path fill="none" stroke="#BABABA" stroke-width=".219" stroke-linecap="round" stroke-linejoin="round" stroke-miterlimit="10" d="M155.7 69l14.5 9.8-25.3 28.8-14.1-10.7z"></path><path fill="none" stroke="#BABABA" stroke-width=".63" stroke-linecap="round" stroke-linejoin="round" stroke-miterlimit="10" d="M163.3 71.7l1.7 1.1"></path><ellipse transform="rotate(-74.032 162.614 71.176)" fill="none" stroke="#BABABA" stroke-width=".3" stroke-miterlimit="10" cx="162.6" cy="71.2" rx=".1" ry=".1"></ellipse><path fill="none" stroke="#BABABA" stroke-width=".219" stroke-linecap="round" stroke-linejoin="round" stroke-miterlimit="10" d="M172 78.2c-1.1 1.3-27.1 30.9-27.9 31.9-.8 1-1.7 1.3-3.2.2-1.5-1.1-11.7-8.7-12.7-9.6-1-.9-.2-2 .7-3 1-1 26.7-29.7 27.5-30.6.8-.9 1.6-1.1 2.9-.2s12.2 7.6 13 8.3c.9.6.8 1.8-.3 3z"></path><path fill="none" stroke="#BABABA" stroke-width=".63" stroke-linecap="round" stroke-linejoin="round" stroke-miterlimit="10" d="M136.1 103.8l.3.2h.2l.3-.3c.1-.1 0-.2 0-.2l-.3-.2h-.2l-.3.3c-.1.1-.1.2 0 .2z"></path><path fill="none" stroke="#BABABA" stroke-width=".219" stroke-linecap="round" stroke-linejoin="round" stroke-miterlimit="10" d="M131.1 99.5l.7.6M141 107l.7.6"></path><circle fill="none" stroke="#515151" stroke-width=".219" stroke-linecap="round" stroke-linejoin="round" stroke-miterlimit="10" cx="163.7" cy="54.8" r="2.3"></circle><circle fill="none" stroke="#515151" stroke-width=".219" stroke-linecap="round" stroke-linejoin="round" stroke-miterlimit="10" cx="21.3" cy="121.3" r="2.3"></circle><g><linearGradient id="E-COMMERCE_2_" gradientUnits="userSpaceOnUse" x1="25.172" y1="118.21" x2="43.883" y2="102.51"><stop offset="0" stop-color="#FFF"></stop><stop offset="1" stop-color="#E0E0E0"></stop></linearGradient><path opacity=".5" fill="url(#E-COMMERCE_2_)" d="M64.2 126.7l-49-41.2 20.3 44.7s1.1 3.4 6.4 2.1c5.2-1.4 22.3-5.6 22.3-5.6z"></path><path fill="none" stroke="#BABABA" stroke-width=".63" stroke-linecap="round" stroke-linejoin="round" stroke-miterlimit="10" d="M16.8 81c2.2-.2 31.6-3.2 33.4-3.3s3.8.1 5.2 2.5c1.4 2.3 25.6 37.7 26.7 39.5 1.1 1.8.1 3.8-2.6 4.1s-36 9.1-38.7 9.7c-2.7.6-5-.1-6.8-4.2s-19.2-42.8-20.2-45c-.2-.7-.2-3 3-3.3z"></path><path fill="none" stroke="#BABABA" stroke-width=".219" stroke-linecap="round" stroke-linejoin="round" stroke-miterlimit="10" d="M15.2 81.2c-1.1.8-1.2 1.5-.1 4.2s19 42.6 20.3 44.7c1.2 2.1 2.8 3.1 6.4 2.1 3.6-1 37.3-9 39.2-9.6 1.9-.6 1.6-2.5.8-3.8"></path><path fill="none" stroke="#BABABA" stroke-width=".219" stroke-linecap="round" stroke-linejoin="round" stroke-miterlimit="10" d="M37.4 129.4L16.7 83.7 53 79.5l25.8 39.2z"></path><path fill="none" stroke="#BABABA" stroke-width=".63" stroke-linecap="round" stroke-linejoin="round" stroke-miterlimit="10" d="M60.4 126l.6-.1c.1 0 .2-.1.1-.2l-.2-.5c0-.1-.2-.2-.3-.1l-.6.1c-.1 0-.2.1-.1.2l.2.5c.1 0 .2.1.3.1z"></path><path fill="none" stroke="#BABABA" stroke-width=".219" stroke-linecap="round" stroke-linejoin="round" stroke-miterlimit="10" d="M52.6 127.3l1.5-.3M66.7 123.8l1.3-.4"></path></g><circle fill="none" stroke="#515151" stroke-width=".219" stroke-linecap="round" stroke-linejoin="round" stroke-miterlimit="10" cx="59.2" cy="108.2" r="2.7"></circle><g><defs><path id="E-COMMERCE_3_" d="M145.2 79s-16.3 17.9-17.4 19.4-.9 1.8 1 3.5 7.1 5.6 7.1 5.6l-13.6 20-39.1-8.5-4-3.8-19.7-29 8-6.7L74.2 29l77.7 8.5-5.2 38.5-1.5 3z"></path></defs><clipPath id="E-COMMERCE_4_"><use xlink:href="#E-COMMERCE_3_" overflow="visible"></use></clipPath><g clip-path="url(#E-COMMERCE_4_)"><linearGradient id="E-COMMERCE_5_" gradientUnits="userSpaceOnUse" x1="99.241" y1="99.856" x2="156.35" y2="51.936"><stop offset="0" stop-color="#FFF"></stop><stop offset="1" stop-color="#E0E0E0"></stop></linearGradient><path opacity=".5" fill="url(#E-COMMERCE_5_)" d="M140.6 39.4l-55 44.2 43.5 7.8.1-.2 7.2 1.2c2 .3 2.8 1.3 2.8 1.5.8 0 1-1.9 1.1-2.2.4-2.5 6.7-43.2 7.5-47.2.7-4-2.3-4.5-2.3-4.5l-4.9-.6z"></path><path fill="none" stroke="#BABABA" stroke-width=".63" stroke-linecap="round" stroke-linejoin="round" stroke-miterlimit="10" d="M139.4 94.4v1.1c0 .6-.4 1.6-1.8 3.8-1.5 2.2-13.9 20.3-15.1 22.1-1.2 1.8-2.6 3-6.6 2.1-3.9-.9-72.1-16.1-73.3-16.4-1.2-.3-1.9-.8-1.9-1.8v-1.6c0-.4.1-.9 2.1-2.4C44.7 99.6 66.1 83 67.3 82c1.2-1 2.5-1.2 2.9-1.2s-.4-.1.1-2.9c.4-2.8 6.5-40.9 6.7-42.4.3-1.5 1-2.9 3-2.8 2 .1 63.1 6.6 65 6.8 2 .2 3.7 1.3 3.3 4.2-.5 2.9-7.2 46.6-7.5 48.3s-1.4 2.4-1.4 2.4z"></path><path fill="none" stroke="#BABABA" stroke-width=".219" stroke-linecap="round" stroke-linejoin="round" stroke-miterlimit="10" d="M139.4 94.5s.5-1.5-3.2-2.2c-3.4-.6-7-1.1-7-1.1l-.7 1.1L77.2 83l1-.9-7.9-1.3"></path><path fill="none" stroke="#BABABA" stroke-width=".219" stroke-linecap="round" stroke-linejoin="round" stroke-miterlimit="10" d="M128.9 91.7l-50.7-9.1-.6.5M78.2 82.1v.5M78.2 82.3l50.9 9.1M138.8 93.5c.6-.5.8-1.4 1.1-3.1.3-1.7 7-44.2 7.3-46 .2-1.8-.3-3.7-2.7-4-2.5-.3-62.5-6.5-64.2-6.6-1.7-.1-2.3.8-2.6 2.4S71.2 77.5 71 78.5c-.2 1.1.2 2.3.2 2.3"></path><path fill="none" stroke="#BABABA" stroke-width=".63" stroke-linecap="round" stroke-linejoin="round" stroke-miterlimit="10" d="M143.7 44.1l-7 43.6-62.5-10.2L80.7 37z"></path><path fill="none" stroke="#BABABA" stroke-width=".219" stroke-linecap="round" stroke-linejoin="round" stroke-miterlimit="10" d="M133.9 94.9c-.4.6-8.4 11.6-8.8 12.1-.5.5-1.5.8-3.3.5-1.8-.3-63.1-12.7-64-12.9-.9-.2-.9-.6 0-1.3.9-.7 11.5-9.3 12.2-9.8.6-.5 1.4-.7 2.8-.5 1.4.2 59.1 10.6 60.1 10.8.9 0 1.5.3 1 1.1z"></path><path fill="none" stroke="#BABABA" stroke-width=".219" stroke-linecap="round" stroke-linejoin="round" stroke-miterlimit="10" d="M59.2 93.8v.4l64.1 12.6 8.6-11.9v-.4M100 104.9c-.4.5-7.2 7.9-7.8 8.5-.5.6-1.2.5-2.3.3-1.1-.2-22.4-4.9-23.1-5-.7-.2-.8-.6 0-1.3.8-.7 7.4-6.9 8-7.4.6-.5 1.3-.7 2.6-.4 1.3.3 20.4 4.1 21.5 4.3 1 .2 1.6.5 1.1 1z"></path><path fill="none" stroke="#BABABA" stroke-width=".219" stroke-linecap="round" stroke-linejoin="round" stroke-miterlimit="10" d="M139.3 93.8c-.1.7-.2 1-1.7 3-1.4 2.1-14.6 21.2-15.5 22.5-1 1.3-2.6 2.3-7.3 1.2s-31.1-6.8-31.1-6.8-.1.6-.5.7c-.4.1-1.8-.1-2.9-.3-1.1-.2-6.8-1.5-7.6-1.7-.8-.2-1.2-.8-1.3-1.4 0 0-27.3-6-28.6-6.3-1.4-.3-2.1-.7-2-1.6"></path><path fill="none" stroke="#BABABA" stroke-width=".219" stroke-linecap="round" stroke-linejoin="round" stroke-miterlimit="10" d="M83.6 113.8s-.2-.5-1.1-.7-9.1-2-9.8-2.1c-.8-.2-1.3.2-1.3.2M82.4 113.8l-9.7-2.1M114.5 121.6l-2.8-.6M127.8 112.3l.5-.8M128.9 110.6l9.8-14.5M110.9 96.3l3.8.7 1.2-1.6-3.8-.7zM115.4 97.7l-4-.8-1.2 1.8 3.8.7zM93.1 93.4l-3.8-.8-1.5 1.8 3.8.7zM110.7 96.8l-3.8-.8-1.4 1.8 4 .7zM97.5 94.2l-3.8-.7-1.5 1.7 3.8.7zM88.7 92.5l-3.5-.6-1.6 1.6 3.6.7zM78.9 95l1.4-1.6-3.3-.7-1.5 1.6zM77 90.3L75.4 92l3.4.6 1.6-1.7zM84.5 91.7l-3.4-.6-1.6 1.7 3.5.6zM76.7 87.6l3.5.6 1.7-1.4-3.5-.6zM89.4 90l3.6.6 1.5-1.4-3.5-.7zM116.3 93.2l-1.3 1.5 3.7.7 1.1-1.5zM85.1 89.2l3.6.6 1.6-1.4-3.5-.6zM80.9 88.4l3.5.6 1.7-1.4-3.5-.6zM93.7 90.8l3.4.6 1.6-1.4-3.5-.7zM110.7 93.9l3.4.7 1.4-1.5-3.4-.7zM98 91.6l3.4.6 1.5-1.5-3.4-.6zM106.4 93.1l3.6.7 1.3-1.5-3.5-.6zM102.1 92.3l3.6.7 1.4-1.5-3.5-.6zM101.8 95.1l-3.8-.8-1.4 1.7 3.8.8zM72 89.3l-5.9-1.1-2 1.6 6.2 1.2zM66.6 87.8l5.2 1 1.5-1.4-5.1-1zM105.1 102.8l3.9.8 1.6-2.1-3.8-.7zM116.5 95.5l-1.2 1.7 3.9.7 1.3-1.7zM121 96.3l-1.3 1.7 4 .8 1.2-1.7zM109.9 103.8l3.7.7.7-.9-3.8-.7zM106.3 95.9l-3.9-.7-1.5 1.7 4 .7zM116.1 97.8l-1.4 1.7 3.9.8 1.3-1.8zM110.6 101.2l.2.1 3.7.7 1.3-1.8-3.8-.7zM97.8 93.8l3.7.7 1.4-1.6-3.8-.7zM106.5 95.5l3.7.7 1.2-1.7-3.7-.7zM76.3 90.1l-3.6-.6-1.7 1.6 3.7.7zM93.4 92.9l3.7.7 1.4-1.5-3.8-.7zM102.1 94.6l3.7.7 1.2-1.6-3.5-.7zM89 92.1l3.7.7 1.4-1.5-3.8-.7zM80.2 90.4l1.4-1.3h.8l-4.1-.8-1.5 1.4zM85 91.3l3.3.7 1.4-1.5-3.4-.7zM81 90.5l3.3.7 1.3-1.5-3.1-.6zM83 86.6l3.6.6.8-.7-3.5-.6zM73 94.2l-2.9-.5-.6-.1-2 1.8 3.5.7zM78.9 85.8l3.5.7.8-.8-3.5-.6zM100.3 99.5l-26.7-5.2-1.9 1.9 26.8 5.3zM72.6 88.9l3.5.7 1.5-1.3h.3l-3.8-.8zM72 91.8l-8.3-1.6-1.9 1.4 8.5 1.7zM116.2 102.6l-1.6 2.1 4 .8 1.5-2.1zM76 87.5l1.7-1.4-3.4-.7-1.7 1.4zM74.7 85.1l3.5.6.9-.7-3.5-.6zM68.7 86.1l3.2.6 1.7-1.4-3.2-.6zM66.8 95.3l2-1.9-3.6-.7-1.9 1.9zM74 84.9l.9-.6-3.2-.6-.8.6zM64.6 92.6l-3.2-.6-2.2 1.8 3.3.6zM125.9 93.4l-.6 1 5.8 1.1.8-1zM120 104.7l-.6.9 3.8.8.6-.9zM116.5 100.4l-1.2 1.7 1.2.3 8.4 1.6 1.3-1.8zM125 94.8l-1.1 1.6 5.8 1.1 1.1-1.6z"></path><path fill="#BABABA" d="M126 97.9l2.3.4-2 2.8-5.8-1.1.5-.6 3.3.6h.1c.2 0 .4-.1.5-.3l1.1-1.8m-.3-.7l-1.4 2.2-3.7-.7-1.3 1.8 7.2 1.4 2.9-3.9-3.7-.8z"></path><path fill="none" stroke="#BABABA" stroke-width=".219" stroke-linecap="round" stroke-linejoin="round" stroke-miterlimit="10" d="M106 100.6l-4.9-.9-1.7 2 4.9 1zM102 97.5l-3.6-.7-1.5 1.7 3.6.7zM106.8 98.5l-4-.8-1.4 1.7 4 .8zM97.6 96.7L94 96l-1.5 1.7 3.7.7zM111.3 99.3l-3.9-.7-1.4 1.7 4 .8zM93.3 95.9l-3.7-.7-1.4 1.6 3.6.7zM84.4 94.2l-3.4-.7-1.4 1.6 3.4.7zM74.7 94.2l1.6-1.6-3.6-.7-1.6 1.6zM120.5 94l-1.1 1.5 3.8.8 1.1-1.6zM88.9 95l-3.8-.7-1.3 1.7 3.6.7zM99.9 89.7l3.4.6.9-.8-3.5-.6zM95.7 88.9l3.4.7.9-.8-3.5-.7zM87.2 87.4l3.6.6.8-.7-3.5-.7zM91.4 88.1l3.6.7.8-.8-3.5-.6zM121.6 92.6l-.7 1 3.7.7.7-1zM104 90.5l3.5.6.9-.8-3.5-.7zM116.6 92.8l3.6.7.7-1-3.5-.6zM112.4 92l3.5.7.8-1-3.4-.6zM108.2 91.3l3.5.6.8-.9-3.4-.6z"></path></g></g><g fill="none" stroke="#515151" stroke-width=".219" stroke-linecap="round" stroke-linejoin="round" stroke-miterlimit="10"><path d="M72.9 45.7c.4.1.9.2 1.3.3M70.3 45.1c.4.1.9.2 1.3.3M67.7 44.5c.4.1.8.2 1.3.3M65 43.9c.4.1.9.2 1.3.3M62.4 43.5c.4.1.9.1 1.3.2M59.7 43.1c.4.1.9.1 1.3.2M57.1 42.9c.4 0 .9.1 1.3.1M54.4 42.8h1.3M51.8 43c.4-.1.8-.1 1.3-.2M49.4 43.8c.3-.2.7-.3 1.2-.5M47.9 45.6c0-.2.1-.3.2-.5s.2-.4.4-.6M48.3 48.1c-.2-.4-.3-.8-.4-1.2M49.7 50.3c-.3-.4-.5-.7-.8-1.1M51.4 52.2c-.3-.3-.6-.6-.9-1M53.3 54.1c-.3-.3-.7-.6-1-.9M55.3 55.8c-.3-.3-.7-.6-1-.9M57.4 57.5c-.4-.3-.7-.6-1.1-.8M59.6 59.1c-.4-.3-.7-.5-1.1-.8M61.8 60.6c-.4-.3-.7-.5-1.1-.8M64 62.1c-.4-.2-.7-.5-1.1-.7M66.2 63.6c-.4-.2-.7-.5-1.1-.7M68.5 65c-.4-.2-.8-.5-1.1-.7M70.8 66.4c-.4-.2-.8-.5-1.1-.7M73.1 67.8c-.4-.2-.8-.4-1.1-.7M75.4 69.1c-.4-.2-.8-.4-1.2-.7M77.8 70.4c-.4-.2-.8-.4-1.1-.6M80.1 71.7l-1.2-.6M82.5 73l-1.2-.6M84.9 74.2l-1.2-.6M87.3 75.5l-1.2-.6M89.7 76.7l-1.2-.6M92.1 77.8l-1.2-.6M94.6 79l-1.2-.6M97 80.2l-1.2-.6M99.4 81.3l-1.2-.6M101.9 82.4c-.4-.2-.8-.4-1.2-.5M104.3 83.5c-.4-.2-.8-.4-1.2-.5M106.8 84.6c-.4-.2-.8-.4-1.2-.5M109.3 85.6c-.4-.2-.8-.3-1.2-.5M111.7 86.7c-.4-.2-.8-.3-1.2-.5M114.2 87.7c-.4-.2-.8-.3-1.2-.5M116.7 88.7c-.4-.2-.8-.3-1.2-.5M119.2 89.6c-.4-.2-.8-.3-1.2-.5M121.7 90.6c-.4-.2-.8-.3-1.2-.5M124.3 91.6c-.4-.2-.8-.3-1.2-.5M126.8 92.5c-.4-.1-.8-.3-1.2-.4M129.3 93.4c-.4-.1-.8-.3-1.2-.4M131.8 94.2c-.4-.1-.8-.3-1.2-.4M134.4 95.1c-.4-.1-.8-.3-1.2-.4M137 95.9c-.4-.1-.9-.3-1.3-.4M139.5 96.7c-.4-.1-.8-.3-1.3-.4M142.1 97.5c-.4-.1-.8-.2-1.3-.4M144.7 98.2c-.4-.1-.9-.2-1.3-.4M147.2 98.9c-.4-.1-.8-.2-1.3-.3M149.9 99.6c-.4-.1-.9-.2-1.3-.3M152.5 100.2c-.4-.1-.8-.2-1.3-.3M155.1 100.7c-.4-.1-.8-.2-1.3-.3M157.7 101.2c-.4-.1-.9-.1-1.3-.2M160.3 101.6c-.4-.1-.8-.1-1.3-.2M163 101.8c-.4 0-.8-.1-1.3-.1M165.7 102h-1.3M168.3 101.8c-.4 0-.8.1-1.3.1M170.8 101.2c-.4.2-.8.3-1.2.4M172.5 99.9c-.2.3-.4.6-.8.8M172.8 98.2c.1.5.1.8 0 1.1M172.1 96.1c.2.4.4.8.5 1.2M170.7 94.1c.3.4.6.7.8 1M169 92.2l.9.9M167 90.3c.3.3.7.6 1 .9M165 88.6c.3.3.7.6 1 .8M146 76c.4.2.8.4 1.1.6M143.6 74.8l1.2.6"></path></g><g fill="none" stroke="#515151" stroke-width=".219" stroke-linecap="round" stroke-linejoin="round" stroke-miterlimit="10"><path d="M21.5 109.7c.5-.3 1-.6 1.5-.8M18.7 111.4c.5-.3.9-.6 1.4-.8M15.8 113.2c.5-.3.9-.6 1.4-.9M13.1 115c.4-.3.9-.6 1.4-.9M10.5 116.9c.4-.3.8-.6 1.3-1M8.2 118.8c.3-.3.7-.7 1.1-1M6.4 120.9c.2-.3.5-.7.8-1M6.3 122.7c-.1-.1-.2-.2-.2-.3-.1-.1-.1-.3-.1-.5M8.4 123.4c-.5 0-.9-.1-1.2-.2M11.4 123.3c-.5.1-1 .1-1.5.1M14.5 122.8c-.5.1-1.1.2-1.5.3M17.6 122.1c-.6.1-1.1.2-1.6.3M20.8 121.4c-.5.1-1.1.3-1.6.4M24 120.5c-.5.2-1.1.3-1.6.4M27.3 119.6c-.5.2-1.1.3-1.6.5M30.4 118.6c-.5.2-1.1.3-1.6.5M33.6 117.6c-.5.2-1 .3-1.6.5M36.8 116.6c-.5.2-1 .3-1.6.5M40.1 115.5c-.5.2-1.1.4-1.6.5M43.3 114.4c-.5.2-1.1.4-1.6.6M46.4 113.3c-.5.2-1.1.4-1.6.6M49.6 112.1c-.5.2-1.1.4-1.6.6M52.8 110.9c-.5.2-1 .4-1.6.6M56 109.7c-.5.2-1.1.4-1.6.6M59.2 108.5c-.5.2-1 .4-1.6.6M62.4 107.3c-.5.2-1.1.4-1.6.6M65.5 106.1c-.5.2-1.1.4-1.6.6M68.7 104.8c-.5.2-1 .4-1.6.6M71.9 103.5c-.5.2-1 .4-1.6.6M75 102.2c-.5.2-1.1.4-1.6.6M78.2 101l-1.5.6M81.4 99.6c-.5.2-1.1.4-1.6.7M84.5 98.3l-1.5.6M87.6 97c-.5.2-1 .4-1.5.7M90.8 95.6c-.5.2-1 .4-1.5.7M93.9 94.3c-.5.2-1 .4-1.5.7M97 92.9c-.5.2-1 .5-1.5.7M100.1 91.5c-.5.2-1 .5-1.5.7M103.2 90.1c-.5.2-1 .5-1.5.7M106.3 88.7c-.5.2-1 .5-1.5.7M109.4 87.3c-.5.2-1 .5-1.5.7M112.5 85.8c-.5.2-1 .5-1.5.7M115.6 84.4c-.5.2-1 .5-1.5.7M118.6 82.9c-.5.2-1 .5-1.5.7M121.7 81.4c-.5.2-1 .5-1.4.7M124.8 79.9c-.5.2-1 .5-1.5.7M127.8 78.4c-.5.3-1 .5-1.5.8M130.8 76.9c-.5.3-1 .5-1.5.8M133.9 75.3c-.5.3-1 .5-1.5.8M136.8 73.7c-.5.3-1 .5-1.5.8M139.8 72.1c-.5.3-1 .5-1.4.8M142.8 70.5c-.5.3-1 .5-1.5.8M145.7 68.9c-.5.3-.9.5-1.4.8M148.6 67.2c-.5.3-.9.5-1.4.8M151.5 65.5c-.5.3-.9.6-1.4.8M154.2 63.8c-.4.3-.9.6-1.3.8M157 62c-.4.3-.9.6-1.3.9M159.6 60.1c-.4.3-.8.6-1.3.9M162.1 58.1c-.4.3-.7.6-1.2 1M164 56.1c-.2.3-.5.7-.9 1M164.7 54.4c.1.2 0 .5-.1.9M163.8 53.4c.5.1.6.3.7.5M161.6 53.2c.5 0 1 0 1.4.1M158.8 53.4c.5-.1 1-.1 1.5-.2M155.7 53.9l1.5-.3M152.5 54.5l1.5-.3M149.3 55.3c.5-.1 1.1-.3 1.6-.4M146.1 56.2c.5-.2 1.1-.3 1.6-.4"></path></g></svg>